<svg xmlns="http://www.w3.org/2000/svg" width="64" height="64" viewBox="0 0 64 64" fill="none">
  <defs>
    <linearGradient id="bg" x1="12" y1="6" x2="52" y2="58" gradientUnits="userSpaceOnUse">
      <stop stop-color="#1C1C1E"/>
      <stop offset="1" stop-color="#050506"/>
    </linearGradient>
    <linearGradient id="blue" x1="18" y1="17" x2="46" y2="52" gradientUnits="userSpaceOnUse">
      <stop stop-color="#4DA6FF"/>
      <stop offset="1" stop-color="#0071E3"/>
    </linearGradient>
    <linearGradient id="soft" x1="20" y1="12" x2="46" y2="46" gradientUnits="userSpaceOnUse">
      <stop stop-color="#F5F5F7"/>
      <stop offset="1" stop-color="#98989D"/>
    </linearGradient>
    <filter id="glow" x="6" y="10" width="52" height="50" color-interpolation-filters="sRGB" filterUnits="userSpaceOnUse">
      <feDropShadow dx="0" dy="6" stdDeviation="5" flood-color="#0071E3" flood-opacity="0.35"/>
    </filter>
  </defs>
  <rect width="64" height="64" rx="16" fill="url(#bg)"/>
  <rect x="1" y="1" width="62" height="62" rx="15" stroke="white" stroke-opacity="0.08" stroke-width="2"/>
  <path d="M17 45.5H49" stroke="#F5F5F7" stroke-opacity="0.18" stroke-width="3" stroke-linecap="round"/>
  <g filter="url(#glow)">
    <rect x="18" y="31" width="7" height="15" rx="3.5" fill="url(#blue)" fill-opacity="0.55"/>
    <rect x="28.5" y="23" width="7" height="23" rx="3.5" fill="url(#blue)" fill-opacity="0.78"/>
    <rect x="39" y="16" width="7" height="30" rx="3.5" fill="url(#blue)"/>
  </g>
  <circle cx="25" cy="23" r="9" fill="#0A0A0A" stroke="url(#soft)" stroke-width="2.4"/>
  <path d="M20.5 20H29.5M25 20V27" stroke="url(#soft)" stroke-width="2.6" stroke-linecap="round"/>
  <path d="M18 38C26.5 39.2 37 34.8 46 24" stroke="#4DA6FF" stroke-width="3" stroke-linecap="round" stroke-linejoin="round"/>
  <path d="M41 24H46V29" stroke="#4DA6FF" stroke-width="3" stroke-linecap="round" stroke-linejoin="round"/>
</svg>
